<svg xmlns="http://www.w3.org/2000/svg" width="128" height="16" viewBox="0 0 128 16">
  <g id="Likes_Comments" data-name="Likes/Comments" transform="translate(-48 -400)">
    <g id="Likes" transform="translate(-2 -14)">
      <text id="_609" data-name="609" transform="translate(74 427)" fill="#2699fb" font-size="14" font-family="Arial" font-weight="700"><tspan x="0" y="0">609</tspan></text>
      <g id="Symbol_66" data-name="Symbol 66" transform="translate(-746 -128)">
        <path id="Heart" d="M14.746,1.3a4.3,4.3,0,0,0-6.119,0l-.6.6-.6-.6A4.327,4.327,0,0,0,1.3,7.423l6.721,6.721,6.721-6.721a4.3,4.3,0,0,0,0-6.119" transform="translate(795.975 542.975)" fill="#2699fb" fill-rule="evenodd"/>
      </g>
    </g>
    <g id="Comments" transform="translate(-6 -14)">
      <text id="_120" data-name="120" transform="translate(158 427)" fill="#2699fb" font-size="14" font-family="Arial" font-weight="700"><tspan x="0" y="0">120</tspan></text>
      <g id="Symbol_67" data-name="Symbol 67" transform="translate(-746 -143)">
        <path id="Chat" d="M5,8A.945.945,0,0,0,6,9h4a1,1,0,0,0,1-1,.945.945,0,0,0-1-1H6A1,1,0,0,0,5,8ZM0,5A4.951,4.951,0,0,1,5,0h6a4.951,4.951,0,0,1,5,5V15a.945.945,0,0,1-1,1H5a4.951,4.951,0,0,1-5-5Z" transform="translate(880 557)" fill="#2699fb" fill-rule="evenodd"/>
      </g>
    </g>
  </g>
</svg>
